# xmcd
#
# Track frame offsets:
#	150
#	16009
#	37857
#	54401
#	69618
#	86141
#	107758
#	120854
#	134875
#	151191
#	169000
#	186018
#	209551
#	225033
#
# Disc length: 3139 seconds
#
# Revision: 0
# Processed by: cddbd v1.4PL0 Copyright (c) Steve Scherf et al.
# Submitted via: MusicWizard 6.0.0
#
DISCID=ab0c410e
DTITLE=Various Artist - All My Friends Are Cowboys (Music From The Original Television Special)
DYEAR=1998
DGENRE=Cowboy Country
TTITLE0=Wilford Brimley - All My Friends Are Cowboys
TTITLE1=Wilford Brimley - Cowboy Philosophy
TTITLE2=Ty England - Holdin' On
TTITLE3=Johnny And June Carter Cash - Cowboys And Ladies
TTITLE4=Joe Diffie - Give The Cowboy Room
TTITLE5=Kristen Zang - Don't Give Your Heart To A Cowboy
TTITLE6=Brinley And Diffie - Cowboy At College
TTITLE7=Don Edwards - Hard Old Habit To Break
TTITLE8=England, Brimley, Diffie - Measure Of How You'll Be Missed
TTITLE9=Joe Diffie - Outlaw
TTITLE10=Johnny Cash - Heroes In Black And White
TTITLE11=Ty England - Part Of The Moon Is Missing Tonight
TTITLE12=Don Edwards With Roy Rogers - A Cowboy's Prayer
TTITLE13=Waddie Mitchell - In Between The Lines
EXTD=(p)1998 CMC Cowboys Production, Inc\n(c)1998 Grabbapple Music Corporation
EXTT0=
EXTT1=
EXTT2=
EXTT3=
EXTT4=
EXTT5=
EXTT6=
EXTT7=
EXTT8=
EXTT9=
EXTT10=
EXTT11=
EXTT12=
EXTT13=
PLAYORDER=
